<svg width="313" height="353" viewBox="0 0 313 353" fill="none" xmlns="http://www.w3.org/2000/svg">
<path d="M0 63L310 7V180V353H0V63Z" fill="white" fill-opacity="0.05"/>
<path d="M0 63L310 7V180V353H0V63Z" fill="white" fill-opacity="0.05"/>
<path d="M0 63L310 7V180V353H0V63Z" fill="white" fill-opacity="0.05"/>
<path d="M2.5 39L312.5 107.5V179.5V352.5H2.5V39Z" fill="white" fill-opacity="0.1"/>
<path d="M2.5 39L312.5 107.5V179.5V352.5H2.5V39Z" fill="white" fill-opacity="0.1"/>
<path d="M2.5 39L312.5 107.5V179.5V352.5H2.5V39Z" fill="white" fill-opacity="0.1"/>
<path d="M2.5 85L300.5 179.5H312.5V352.5H2.5V85Z" fill="white" fill-opacity="0.12"/>
<path d="M2.5 85L300.5 179.5H312.5V352.5H2.5V85Z" fill="white" fill-opacity="0.12"/>
<path d="M2.5 85L300.5 179.5H312.5V352.5H2.5V85Z" fill="white" fill-opacity="0.12"/>
<path d="M2.5 109.5L68.25 86.25L134 63L312.5 0V179.5V352.5H2.5V109.5Z" fill="white" fill-opacity="0.2"/>
<path d="M2.5 109.5L68.25 86.25L134 63L312.5 0V179.5V352.5H2.5V109.5Z" fill="white" fill-opacity="0.2"/>
<path d="M2.5 109.5L68.25 86.25L134 63L312.5 0V179.5V352.5H2.5V109.5Z" fill="white" fill-opacity="0.2"/>
<path fill-rule="evenodd" clip-rule="evenodd" d="M310 7.5L0 163L0 352.565L310 352.565L310 144.233L310 7.5Z" fill="white"/>
<path fill-rule="evenodd" clip-rule="evenodd" d="M310 7.5L0 163L0 352.565L310 352.565L310 144.233L310 7.5Z" fill="#482079"/>
<path fill-rule="evenodd" clip-rule="evenodd" d="M310 7.5L0 163L0 352.565L310 352.565L310 144.233L310 7.5Z" fill="white"/>
</svg>
